HIERARCHY
ROOT Hips
{
  OFFSET 40.9192 92.6879 18.85
  CHANNELS 6 Xposition Yposition Zposition Zrotation Xrotation Yrotation
  JOINT LeftUpLeg
  {
    OFFSET 8.64259 1.95398 -2.38835
    CHANNELS 3 Zrotation Xrotation Yrotation
    JOINT LeftLeg
    {
      OFFSET 43.7702 0 0
      CHANNELS 3 Zrotation Xrotation Yrotation
      JOINT LeftFoot
      {
        OFFSET 40.6238 0 0
        CHANNELS 3 Zrotation Xrotation Yrotation
        JOINT LeftToeBase
        {
          OFFSET 12.7242 0 0
          CHANNELS 3 Zrotation Xrotation Yrotation
          End Site
          {
            OFFSET 0 0 0
          }
        }
      }
    }
  }
  JOINT RightUpLeg
  {
    OFFSET -8.2249 1.95398 -2.59336
    CHANNELS 3 Zrotation Xrotation Yrotation
    JOINT RightLeg
    {
      OFFSET 43.5653 0 0
      CHANNELS 3 Zrotation Xrotation Yrotation
      JOINT RightFoot
      {
        OFFSET 40.6238 0 0
        CHANNELS 3 Zrotation Xrotation Yrotation
        JOINT RightToeBase
        {
          OFFSET 12.7242 0 0
          CHANNELS 3 Zrotation Xrotation Yrotation
          End Site
          {
            OFFSET 0 0 0
          }
        }
      }
    }
  }
  JOINT Spine
  {
    OFFSET 0.165834 0.87714 6.61349
    CHANNELS 3 Zrotation Xrotation Yrotation
    JOINT Spine1
    {
      OFFSET 7.38963 1.71661e-005 0
      CHANNELS 3 Zrotation Xrotation Yrotation
      JOINT Spine2
      {
        OFFSET 11.9445 1.14441e-005 0
        CHANNELS 3 Zrotation Xrotation Yrotation
        JOINT Spine3
        {
          OFFSET 14.7254 4.19617e-005 0
          CHANNELS 3 Zrotation Xrotation Yrotation
          JOINT Spine4
          {
            OFFSET 10.9679 0 0
            CHANNELS 3 Zrotation Xrotation Yrotation
            JOINT RightShoulder
            {
              OFFSET 2.46616 -1.6653 3.69651
              CHANNELS 3 Zrotation Xrotation Yrotation
              JOINT RightArm
              {
                OFFSET 13.0012 0 0
                CHANNELS 3 Zrotation Xrotation Yrotation
                JOINT RightForeArm
                {
                  OFFSET 28.7848 1.52588e-005 0
                  CHANNELS 3 Zrotation Xrotation Yrotation
                  JOINT RightHand
                  {
                    OFFSET 26.5688 1.52588e-005 0
                    CHANNELS 3 Zrotation Xrotation Yrotation
                    End Site
                    {
                      OFFSET 0 0 0
                    }
                  }
                }
              }
            }
            JOINT LeftShoulder
            {
              OFFSET 2.38034 -1.29275 -3.7523
              CHANNELS 3 Zrotation Xrotation Yrotation
              JOINT LeftArm
              {
                OFFSET 16.3182 6.10351e-005 0
                CHANNELS 3 Zrotation Xrotation Yrotation
                JOINT LeftForeArm
                {
                  OFFSET 27.0901 0 0
                  CHANNELS 3 Zrotation Xrotation Yrotation
                  JOINT LeftHand
                  {
                    OFFSET 24.5451 1.52588e-005 0
                    CHANNELS 3 Zrotation Xrotation Yrotation
                    End Site
                    {
                      OFFSET 0 0 0
                    }
                  }
                }
              }
            }
            JOINT Neck
            {
              OFFSET 5.0226 -0.0266342 0
              CHANNELS 3 Zrotation Xrotation Yrotation
              JOINT Head
              {
                OFFSET 6.69363 2.86102e-005 0
                CHANNELS 3 Zrotation Xrotation Yrotation
                End Site
                {
                  OFFSET 0 0 0
                }
              }
            }
          }
        }
      }
    }
  }
}
MOTION
Frames:	17
Frame Time:	0.0416667
-128.865 95.3064 -97.2446 95.9723 -42.5453 93.4488 -170.623 20.4728 90.2945 -26.155 12.7242 -3.41218 58.8663 0.898286 3.58346 39.2776 8.6336 7.94352 176.585 2.6488 93.1185 -29.7671 -5.61362 -2.46666 73.9974 -6.12821 -2.97111 33.1624 0.287996 -2.64125 0.671271 7.93963 -89.8916 10.9947 1.3866 0.0833341 -0.675456 1.38893 0.0222028 -23.216 1.29743 0.496279 -3.20332 1.29745 0.496281 90.6032 -48.0885 -100.33 17.4245 -7.13905 -6.85508 -13.4441 -23.4769 -54.6981 -9.37857 -0.931737 3.43102 -98.4025 -49.5081 66.1524 -20.9538 7.07251 11.9055 4.33112 3.21055 -43.191 12.76 0.615952 0.945119 9.71741 -0.289846 2.54679 2.66898 -0.748863 0.532529 
-132.271 96.3983 -99.9209 96.047 -42.0428 92.5831 -169.74 17.4056 90.6084 -35.327 10.6796 -3.33904 57.2428 -0.0099242 3.42239 41.6759 10.4398 4.04303 176.107 4.43048 92.1996 -27.2114 -6.65387 -2.23652 69.7272 -4.33637 -2.25092 32.7628 0.277191 -2.76186 0.55703 7.82387 -89.7742 11.2247 1.21363 0.329703 -0.445682 1.22695 0.275955 -22.9842 1.05843 0.679235 -2.97152 1.05841 0.679223 91.4751 -48.9051 -98.7882 17.7317 -8.57315 -2.65052 -13.2534 -23.7794 -54.7935 -7.85904 -0.787807 2.50735 -98.21 -48.1067 65.9433 -21.0657 7.25172 11.085 6.0961 4.18367 -46.3602 11.6493 0.60041 1.25464 8.00078 -1.08382 0.561967 2.54066 -1.02961 2.07995 
-135.461 96.7944 -102.748 95.5917 -42.1383 91.8462 -168.802 13.5122 91.5983 -41.8972 8.99849 -3.16144 56.348 -0.47755 2.48817 38.8562 8.20873 7.0776 175.748 6.71927 91.6779 -25.2642 -6.8052 -1.81179 67.6154 -3.43717 -1.82128 30.1284 0.194412 -2.29605 0.398297 7.67148 -89.7381 11.5295 0.914777 0.428537 -0.141185 0.932739 0.387851 -22.6776 0.743697 0.683654 -2.66497 0.743689 0.683657 91.8559 -49.1058 -98.1546 18.1897 -9.36992 0.720248 -13.8388 -24.812 -54.8509 -7.25403 -0.79469 2.75497 -97.5084 -47.3909 66.7374 -21.0223 6.46394 10.7527 9.29105 5.12058 -51.1852 9.20653 0.474432 1.16222 7.98243 -1.26934 0.362047 1.49806 -1.19919 2.02374 
-138.732 96.1719 -105.889 95.307 -42.2502 92.0325 -168.526 8.995 93.2435 -45.8225 8.86977 -2.42063 53.0958 -2.86402 2.33798 36.8653 6.40475 3.65047 176.063 9.446 92.1351 -24.7712 -6.54231 -1.59423 68.1938 -3.70871 -1.96057 27.1321 0.0709995 -2.00214 0.170289 7.57519 -89.7883 11.7226 0.438083 0.375913 0.0516504 0.454227 0.356258 -22.4834 0.304876 0.490195 -2.47075 0.304868 0.490196 91.7346 -49.6676 -98.2288 17.7609 -9.77226 3.75779 -12.6414 -23.5131 -53.5288 -6.64688 -0.707405 2.03008 -96.8264 -46.7582 67.5458 -20.6869 5.07712 10.7122 9.95036 3.64966 -56.0616 8.36061 0.466215 1.55331 8.79842 -0.91914 -0.132618 0.252246 -0.76874 2.41587 
-142.316 94.9767 -109.398 94.5602 -42.0889 91.9703 -169.141 4.84007 94.268 -46.9824 11.8018 -1.43562 50.3692 -5.03394 0.214807 38.1764 7.61515 7.07616 177.138 15.119 92.9679 -28.4015 -5.21979 -1.96351 67.9756 -3.74921 -2.00148 27.4182 -0.0415832 -0.349977 -0.0963114 7.54979 -89.8472 11.7744 -0.119707 0.317367 0.10338 -0.10564 0.322329 -22.4316 -0.209549 0.266723 -2.41893 -0.209559 0.26671 92.2242 -49.1753 -97.5666 17.7111 -9.51906 4.42978 -11.9352 -23.2324 -53.2258 -7.90275 -0.741018 1.9593 -96.3923 -46.3029 68.0497 -19.8331 2.59079 9.34779 11.4204 3.21105 -59.6991 9.04281 0.552109 2.05316 10.187 -0.650224 -0.533065 -0.406741 -0.426052 2.66135 
-146.292 93.4483 -113.462 95.1337 -41.8665 93.1046 -170.398 0.78164 94.5796 -47.6467 16.6532 -0.0942619 51.392 -4.4875 0.565897 42.6316 11.5401 7.0205 178.453 20.5813 93.9262 -32.1764 -3.79436 -2.35123 66.5772 -3.48418 -1.90297 29.9223 0.0938585 -0.610905 -0.356765 7.65507 -89.9331 11.5642 -0.678357 0.203449 -0.106598 -0.668712 0.233096 -22.643 -0.708151 -0.00984421 -2.63033 -0.708131 -0.00983825 92.5181 -49.6037 -97.0285 17.2231 -8.52005 3.86785 -10.914 -22.9653 -52.0884 -7.87446 -0.782028 2.60515 -96.6576 -46.4733 67.7032 -17.8119 0.55877 8.53076 11.884 2.66983 -62.1695 10.0224 0.57992 1.78861 10.3966 -0.451557 -1.1674 -0.145719 -0.0815972 3.00964 
-150.435 92.2223 -117.653 95.0804 -40.1316 93.4812 -172.312 -1.63752 94.0061 -46.7253 21.5349 1.43525 54.0803 -2.61261 -0.511703 47.5064 16.678 11.7281 179.039 24.7801 94.021 -32.6533 -3.59363 -2.56909 64.3712 -2.65227 -1.46454 32.2177 0.246563 -2.8066 -0.643991 7.72585 -89.9672 11.4242 -1.26594 0.193046 -0.246179 -1.25623 0.248578 -22.7864 -1.26543 -0.196415 -2.77371 -1.26543 -0.196419 92.9403 -50.6885 -96.1822 17.2352 -5.94522 3.66237 -11.9682 -23.3612 -51.1918 -7.93713 -0.94218 4.50559 -97.5806 -45.7074 66.0307 -16.5649 -0.679174 7.25794 12.6257 2.99858 -62.5872 10.9234 0.774015 3.03723 10.462 -0.790155 -1.99269 0.251349 -0.235466 2.98303 
-154.963 91.5673 -122.396 94.7456 -39.3985 93.4016 -172.465 -1.95154 93.1108 -43.5467 23.1829 1.28907 59.025 1.35015 2.76652 52.297 20.8104 10.3645 179.157 26.7656 93.4805 -28.4489 -4.34134 -2.5886 64.1757 -2.58344 -1.43278 37.312 0.385366 -4.26639 -0.71381 7.85716 -89.9863 11.161 -1.41434 0.164991 -0.509224 -1.40571 0.22709 -23.0504 -1.39851 -0.267782 -3.03774 -1.39852 -0.267795 92.5458 -51.3132 -96.6704 17.5347 -3.78411 3.23934 -9.60544 -20.4946 -48.7202 -8.08335 -0.888172 4.14784 -98.184 -45.6773 65.0988 -14.9839 -0.978865 3.56376 12.8256 3.91196 -60.2397 11.5799 0.807969 2.96834 10.2101 -1.33108 -2.78988 1.33788 -0.574142 3.13704 
-160.288 91.2779 -127.392 95.2178 -40.0089 92.8233 -170.313 -0.384705 92.0454 -41.012 18.672 -1.15925 66.3977 7.70306 5.83468 49.8534 18.3295 9.25957 179.31 25.1126 92.7145 -19.1782 -4.90728 -2.82926 69.0707 -4.74521 -2.51838 38.384 0.417374 -3.19026 -0.655948 8.07122 -89.7985 10.7344 -1.21326 0.512329 -0.936057 -1.18953 0.565236 -23.4757 -1.31114 0.123956 -3.46303 -1.31114 0.123951 91.6753 -52.8172 -97.6991 16.7665 -2.60443 2.90915 -8.92609 -18.8106 -49.1509 -7.38174 -0.778509 3.47377 -97.838 -44.6095 65.2298 -14.8452 -0.76138 1.26806 12.7655 4.25363 -58.9321 10.4247 0.71008 2.76005 10.6119 -1.88912 -4.72454 2.37986 -0.642059 3.80944 
-165.355 91.1711 -132.12 94.6939 -41.0274 91.7663 -169.573 2.77957 90.3106 -39.3632 16.6616 -2.83074 69.3713 11.8038 11.6787 47.8632 15.2779 2.27435 177.881 22.6645 92.2501 -9.2749 -1.54979 -1.60061 69.0623 -5.01958 -2.69114 38.3155 0.405644 -3.55712 -0.561683 8.15927 -89.6579 10.5582 -0.961509 0.765836 -1.11268 -0.926889 0.807405 -23.65 -1.14723 0.441435 -3.63732 -1.14723 0.441435 91.5409 -52.8776 -97.8876 17.0331 -3.70761 2.21147 -6.44651 -16.0301 -50.9735 -9.85705 -0.833784 2.96226 -97.9811 -43.6552 64.6459 -14.6436 0.618303 1.70569 11.2568 3.72346 -58.3605 12.1149 0.813669 2.73114 10.8509 -2.04666 -5.19789 3.27302 -0.642816 4.02699 
-169.282 91.9474 -136.052 93.3356 -41.8539 90.5872 -169.876 5.31252 88.5907 -35.6676 13.5745 -3.42587 70.3117 13.3229 12.6571 43.6876 11.6843 0.214883 176.902 25.7305 91.4901 -17.5428 0.300355 -0.943022 65.9933 -3.14349 -1.73409 34.487 0.343276 -3.3605 -0.405108 8.05948 -89.6456 10.7566 -0.643248 0.763975 -0.914475 -0.608994 0.791539 -23.4498 -0.843113 0.535335 -3.43715 -0.843108 0.535337 91.3369 -52.7847 -98.2087 17.2313 -4.18389 2.89682 -6.59831 -15.4261 -54.383 -9.85508 -0.694792 1.52134 -98.128 -44.3692 64.6906 -14.2404 3.76384 2.60974 11.2996 4.52607 -57.2275 11.2797 0.76288 2.74728 11.4211 -1.59744 -4.57843 3.06763 -0.301162 4.21663 
-172.999 93.3594 -139.533 94.1162 -44.3652 91.5715 -169.425 7.25386 88.7095 -33.5076 10.2979 -4.19114 68.705 10.4291 9.32691 40.3876 9.13705 0.566119 177.46 25.5518 91.8382 -28.2895 0.9876 -1.50608 64.3249 -2.73571 -1.53196 33.3954 0.30092 -2.76231 -0.0938304 8.05533 -89.6996 10.7629 -0.0482205 0.601733 -0.908221 -0.021688 0.603266 -23.4424 -0.226846 0.559432 -3.42973 -0.226833 0.559421 91.1106 -51.9682 -98.7106 17.7251 -5.33044 1.87201 -7.0983 -15.1939 -54.6281 -11.9572 -0.882831 2.36066 -97.9175 -45.146 65.3077 -15.9947 6.06567 4.48661 9.8554 5.26527 -53.4798 13.1677 0.945532 3.21155 11.0337 -0.818844 -3.74373 2.781 0.249864 4.04541 
-176.442 94.948 -142.493 95.5713 -45.9712 93.4173 -168.985 8.40839 89.9262 -30.6859 10.8425 -4.65159 64.9731 6.08519 6.15672 37.9568 7.32107 3.86916 177.269 23.3496 91.8921 -39.3693 2.47735 -1.72299 62.9758 -2.46668 -1.39351 36.0301 0.366399 -4.11632 0.134463 8.00756 -89.7974 10.858 0.36144 0.369095 -0.812905 0.377295 0.352823 -23.3479 0.233797 0.460658 -3.33519 0.233769 0.460642 90.879 -50.7052 -99.3237 19.3507 -6.00591 1.10715 -7.98894 -16.4713 -54.0177 -9.80279 -0.71454 1.53124 -97.4794 -45.2889 66.0316 -19.5331 7.57233 7.08334 7.41155 5.5544 -47.4011 12.5384 0.831664 2.6684 9.0327 0.150315 -3.24976 2.97917 1.07895 4.52186 
-179.757 96.0058 -145.088 96.786 -45.3218 94.8128 -169.429 9.12235 90.4821 -27.6027 11.5593 -4.34893 62.3098 3.53914 5.50384 34.5682 4.47574 4.2201 175.938 19.723 90.8525 -49.2947 3.37401 -1.41592 61.705 -2.32961 -1.35826 35.8648 0.339338 -7.25247 0.148431 7.9559 -89.8937 10.9618 0.344709 0.17873 -0.709159 0.352277 0.163381 -23.2445 0.275055 0.274066 -3.23181 0.275084 0.274068 91.358 -50.086 -98.7221 20.3861 -6.37923 -0.127045 -11.3805 -18.7243 -54.5377 -9.20672 -0.722902 1.62496 -97.4621 -45.5995 66.171 -22.4134 9.65066 9.21347 4.83461 6.24222 -40.5751 13.866 0.936155 2.82632 8.10486 0.935914 -2.59195 2.50458 1.70413 4.82816 
-183.097 96.0791 -147.442 97.4421 -44.7072 95.588 -169.735 10.4541 90.9002 -25.8389 11.264 -4.30957 61.334 2.17377 4.90286 32.679 2.89397 3.82793 174.914 15.1049 88.9648 -55.3478 6.74909 -1.27223 52.997 -0.29524 0.1844 43.7085 1.33302 -0.364443 0.214044 7.85006 -89.9324 11.1736 0.457474 0.0898082 -0.497262 0.460996 0.0695768 -23.033 0.409323 0.223143 -3.0203 0.409321 0.223141 91.8923 -49.9964 -97.9188 20.864 -6.85456 -0.549381 -12.4548 -20.2979 -56.1077 -10.6161 -0.774978 1.56461 -97.1265 -45.7681 66.7442 -25.0898 11.7363 11.2811 4.66301 9.9956 -35.3464 14.7278 1.07449 3.36118 8.43011 1.13015 -2.59186 1.34916 1.8575 4.88991 
-186.748 95.7153 -149.787 97.0853 -45.1416 95.2554 -169.834 12.311 90.886 -23.7815 10.4052 -4.32662 60.9469 1.72106 4.14946 30.3651 1.05621 2.44944 175.262 10.5311 88.0353 -58.1948 1.16822 -2.54899 50.2464 0.854122 0.927354 40.9696 0.690283 -7.12059 0.407118 7.70897 -89.9388 11.4559 0.838638 0.0369703 -0.21481 0.83947 1.69721e-005 -22.7519 0.788749 0.287323 -2.7393 0.788749 0.287325 91.9245 -49.0084 -98.0664 21.8675 -7.32502 -0.713351 -12.0738 -18.9051 -58.0201 -12.4626 -0.958254 2.52051 -96.6156 -46.2244 67.6826 -27.1086 12.7529 13.0764 4.02202 11.9723 -32.1458 14.8694 1.0776 3.32587 9.76899 1.31223 -1.40838 0.334599 1.73616 3.76612 
-190.966 94.6236 -152.21 95.6565 -46.5793 93.6436 -169.956 16.2428 90.3558 -23.8868 8.55088 -4.33833 61.1933 2.08124 4.67657 27.5592 -0.969432 0.0171765 176.745 7.20374 87.2026 -58.6132 -3.82818 -4.54736 50.3289 1.13398 1.11749 35.6245 0.369188 -5.9897 0.69661 7.54283 -89.8355 11.7879 1.46271 0.172889 0.117773 1.4689 0.108323 -22.4231 1.34313 0.604578 -2.41043 1.34312 0.604572 91.7105 -48.8111 -98.4402 21.7912 -6.81515 -1.45136 -14.5351 -19.6811 -59.6292 -13.2019 -0.92573 1.95127 -96.3616 -46.958 68.3169 -27.5844 12.2738 15.0529 2.85611 10.8908 -30.1047 14.1945 0.946571 2.74449 11.3312 1.16649 -1.31409 -1.21937 1.53917 3.73327 
